# xmcd CD database file
#
# Track frame offsets:
#	150
#	15965
#	36227
#	53113
#	66049
#	75254
#	90885
#	104758
#	116566
#	133274
#
# Disc length: 1949 seconds
#
# Revision: 0
# Processed by: cddbd v1.5.1PL2 Copyright (c) Steve Scherf et al.
# Submitted via: CDex 1.51
#
DISCID=75079b0a
DTITLE=EMA Big-Band - EMA Big-Band
DYEAR=2003
DGENRE=Jazz
TTITLE0=funky cha-cha
TTITLE1=what a wonderful world
TTITLE2=birdland
TTITLE3=fly me to the moon
TTITLE4=it don't mean a thing
TTITLE5=smooth
TTITLE6=mack the knife
TTITLE7=the lady is a tramp
TTITLE8=ain't no mountain high
TTITLE9=mas que nada
EXTD=YEAR: 2003
EXTT0=
EXTT1=
EXTT2=
EXTT3=
EXTT4=
EXTT5=
EXTT6=
EXTT7=
EXTT8=
EXTT9=
PLAYORDER=
